<?xml version="1.0" encoding="UTF-8"?>
<svg xmlns="http://www.w3.org/2000/svg" xmlns:xlink="http://www.w3.org/1999/xlink" width="0" height="0">
<symbol id="mail" viewBox="0 -960 960 960"><path d="M160-160q-33 0-56.5-23.5T80-240v-480q0-33 23.5-56.5T160-800h640q33 0 56.5 23.5T880-720v480q0 33-23.5 56.5T800-160H160Zm320-280L160-640v400h640v-400L480-440Zm0-80 320-200H160l320 200ZM160-640v-80 480-400Z"/></symbol><symbol id="location" viewBox="0 -960 960 960" ><path d="M480-370q51.4 0 92.7-24 41.3-24 66.3-64-34-26-74.22-39-40.21-13-85-13Q435-510 395-497t-74 39q25 40 66.3 64t92.7 24Zm.09-200q28.91 0 49.41-20.59 20.5-20.59 20.5-49.5t-20.59-49.41q-20.59-20.5-49.5-20.5t-49.41 20.59q-20.5 20.59-20.5 49.5t20.59 49.41q20.59 20.5 49.5 20.5ZM480-159q133-121 196.5-219.5T740-552q0-117.79-75.29-192.9Q589.42-820 480-820t-184.71 75.1Q220-669.79 220-552q0 75 65 173.5T480-159Zm0 79Q319-217 239.5-334.5T160-552q0-150 96.5-239T480-880q127 0 223.5 89T800-552q0 100-79.5 217.5T480-80Zm0-480Z"/></symbol><symbol id="phone"  viewBox="0 -960 960 960"><path d="M776-487q-5-121-89-205t-205-89v-60q72 2 135.5 30.5T729-734q48 48 76.5 111.5T836-487h-60Zm-169 0q-5-50-40-84.5T482-611v-60q75 5 127.5 57T667-487h-60Zm188 367q-116 0-236.5-56T335-335Q232-438 176-558.5T120-795q0-19.29 12.86-32.14Q145.71-840 165-840h140q14 0 24 10t14 25l26.93 125.64Q372-665 369.5-653.5t-10.73 19.73L259-533q26 44 55 82t64 72q37 38 78 69.5t86 55.5l95-98q10-11 23.15-15 13.15-4 25.85-2l119 26q15 4 25 16.04 10 12.05 10 26.96v135q0 19.29-12.86 32.14Q814.29-120 795-120ZM229-588l81-82-23-110H180q2 42 13.5 88.5T229-588Zm369 363q41 19 89 31t93 14v-107l-103-21-79 83ZM229-588Zm369 363Z"/></symbol></svg>
