<?xml version="1.0" encoding="UTF-8"?>
<svg xmlns="http://www.w3.org/2000/svg" xmlns:xlink="http://www.w3.org/1999/xlink" width="0" height="0">
<symbol id="gallery" height="24px" viewBox="0 -960 960 960" width="24px"><path d="M200-120q-33 0-56.5-23.5T120-200v-560q0-33 23.5-56.5T200-840h560q33 0 56.5 23.5T840-760v560q0 33-23.5 56.5T760-120H200Zm0-80h560v-560H200v560Zm40-80h480L570-480 450-320l-90-120-120 160Zm-40 80v-560 560Z"/></symbol><symbol id="portfolio" height="24px" viewBox="0 -960 960 960" width="24px"><path d="M360-400h400L622-580l-92 120-62-80-108 140Zm-40 160q-33 0-56.5-23.5T240-320v-480q0-33 23.5-56.5T320-880h480q33 0 56.5 23.5T880-800v480q0 33-23.5 56.5T800-240H320Zm0-80h480v-480H320v480ZM160-80q-33 0-56.5-23.5T80-160v-560h80v560h560v80H160Zm160-720v480-480Z"/></symbol><symbol id="file" height="24px" viewBox="0 -960 960 960" width="24px"><path d="M320-240h320v-80H320v80Zm0-160h320v-80H320v80ZM240-80q-33 0-56.5-23.5T160-160v-640q0-33 23.5-56.5T240-880h320l240 240v480q0 33-23.5 56.5T720-80H240Zm280-520v-200H240v640h480v-440H520ZM240-800v200-200 640-640Z"/></symbol><symbol id="about" height="24px" viewBox="0 -960 960 960" width="24px"><path d="M480-480q-66 0-113-47t-47-113q0-66 47-113t113-47q66 0 113 47t47 113q0 66-47 113t-113 47ZM160-160v-112q0-34 17.5-62.5T224-378q62-31 126-46.5T480-440q66 0 130 15.5T736-378q29 15 46.5 43.5T800-272v112H160Zm80-80h480v-32q0-11-5.5-20T700-306q-54-27-109-40.5T480-360q-56 0-111 13.5T260-306q-9 5-14.5 14t-5.5 20v32Zm240-320q33 0 56.5-23.5T560-640q0-33-23.5-56.5T480-720q-33 0-56.5 23.5T400-640q0 33 23.5 56.5T480-560Zm0-80Zm0 400Z"/></symbol><symbol id="home" height="24px" viewBox="0 -960 960 960" width="24px"><path d="M240-200h120v-240h240v240h120v-360L480-740 240-560v360Zm-80 80v-480l320-240 320 240v480H520v-240h-80v240H160Zm320-350Z"/></symbol><symbol id="service" height="24px" viewBox="0 -960 960 960" width="24px"><path d="M80-80v-240h240v240H80Zm280 0v-240h240v240H360Zm280 0v-240h240v240H640ZM80-360v-240h240v240H80Zm280 0v-240h240v240H360Zm280 0v-240h240v240H640ZM80-640v-240h800v240H80Zm160 400Zm200 0h80-80Zm280 0ZM240-440v-80 80Zm240-40Zm240 40v-80 80ZM160-160h80v-80h-80v80Zm280 0h80v-80h-80v80Zm280 0h80v-80h-80v80ZM160-440h80v-80h-80v80Zm280 0h80v-80h-80v80Zm280 0h80v-80h-80v80Z"/></symbol><symbol id="blog" height="24px" viewBox="0 -960 960 960" width="24px"><path d="M160-120q-33 0-56.5-23.5T80-200v-560q0-33 23.5-56.5T160-840h640q33 0 56.5 23.5T880-760v560q0 33-23.5 56.5T800-120H160Zm0-80h640v-560H160v560Zm80-80h480v-80H240v80Zm0-160h160v-240H240v240Zm240 0h240v-80H480v80Zm0-160h240v-80H480v80ZM160-200v-560 560Z"/></symbol><symbol id="fqa" height="24px" viewBox="0 -960 960 960" width="24px"><path d="m480-80-10-120h-10q-142 0-241-99t-99-241q0-142 99-241t241-99q71 0 132.5 26.5t108 73q46.5 46.5 73 108T800-540q0 75-24.5 144t-67 128q-42.5 59-101 107T480-80Zm80-146q71-60 115.5-140.5T720-540q0-109-75.5-184.5T460-800q-109 0-184.5 75.5T200-540q0 109 75.5 184.5T460-280h100v54Zm-101-95q17 0 29-12t12-29q0-17-12-29t-29-12q-17 0-29 12t-12 29q0 17 12 29t29 12Zm-29-127h60q0-30 6-42t38-44q18-18 30-39t12-45q0-51-34.5-76.5T460-720q-44 0-74 24.5T344-636l56 22q5-17 19-33.5t41-16.5q27 0 40.5 15t13.5 33q0 17-10 30.5T480-558q-35 30-42.5 47.5T430-448Zm30-65Z"/></symbol><symbol id="testmonial" height="24px" viewBox="0 -960 960 960" width="24px"><path d="M0-240v-63q0-43 44-70t116-27q13 0 25 .5t23 2.5q-14 21-21 44t-7 48v65H0Zm240 0v-65q0-32 17.5-58.5T307-410q32-20 76.5-30t96.5-10q53 0 97.5 10t76.5 30q32 20 49 46.5t17 58.5v65H240Zm540 0v-65q0-26-6.5-49T754-397q11-2 22.5-2.5t23.5-.5q72 0 116 26.5t44 70.5v63H780Zm-455-80h311q-10-20-55.5-35T480-370q-55 0-100.5 15T325-320ZM160-440q-33 0-56.5-23.5T80-520q0-34 23.5-57t56.5-23q34 0 57 23t23 57q0 33-23 56.5T160-440Zm640 0q-33 0-56.5-23.5T720-520q0-34 23.5-57t56.5-23q34 0 57 23t23 57q0 33-23 56.5T800-440Zm-320-40q-50 0-85-35t-35-85q0-51 35-85.5t85-34.5q51 0 85.5 34.5T600-600q0 50-34.5 85T480-480Zm0-80q17 0 28.5-11.5T520-600q0-17-11.5-28.5T480-640q-17 0-28.5 11.5T440-600q0 17 11.5 28.5T480-560Zm1 240Zm-1-280Z"/></symbol><symbol id="contact" height="24px" viewBox="0 -960 960 960" width="24px"><path d="M160-160q-33 0-56.5-23.5T80-240v-480q0-33 23.5-56.5T160-800h640q33 0 56.5 23.5T880-720v480q0 33-23.5 56.5T800-160H160Zm320-280L160-640v400h640v-400L480-440Zm0-80 320-200H160l320 200ZM160-640v-80 480-400Z"/></symbol></svg>
