<svg width="0" height="0" class="hidden">
  <symbol xmlns="http://www.w3.org/2000/svg" fill="#e3e3e3" viewBox="0 -960 960 960" id="settings">
    <path d="m370-80-16-128q-13-5-24.5-12T307-235l-119 50L78-375l103-78q-1-7-1-13.5v-27q0-6.5 1-13.5L78-585l110-190 119 50q11-8 23-15t24-12l16-128h220l16 128q13 5 24.5 12t22.5 15l119-50 110 190-103 78q1 7 1 13.5v27q0 6.5-2 13.5l103 78-110 190-118-50q-11 8-23 15t-24 12L590-80H370Zm70-80h79l14-106q31-8 57.5-23.5T639-327l99 41 39-68-86-65q5-14 7-29.5t2-31.5q0-16-2-31.5t-7-29.5l86-65-39-68-99 42q-22-23-48.5-38.5T533-694l-13-106h-79l-14 106q-31 8-57.5 23.5T321-633l-99-41-39 68 86 64q-5 15-7 30t-2 32q0 16 2 31t7 30l-86 65 39 68 99-42q22 23 48.5 38.5T427-266l13 106Zm42-180q58 0 99-41t41-99q0-58-41-99t-99-41q-59 0-99.5 41T342-480q0 58 40.5 99t99.5 41Zm-2-140Z"></path>
  </symbol>
  <symbol xmlns="http://www.w3.org/2000/svg" fill="#e3e3e3" viewBox="0 -960 960 960" id="system">
    <path d="M440-280h80l12-60q12-5 22.5-10.5T576-364l58 18 40-68-46-40q2-14 2-26t-2-26l46-40-40-68-58 18q-11-8-21.5-13.5T532-620l-12-60h-80l-12 60q-12 5-22.5 10.5T384-596l-58-18-40 68 46 40q-2 14-2 26t2 26l-46 40 40 68 58-18q11 8 21.5 13.5T428-340l12 60Zm40-120q-33 0-56.5-23.5T400-480q0-33 23.5-56.5T480-560q33 0 56.5 23.5T560-480q0 33-23.5 56.5T480-400ZM200-120q-33 0-56.5-23.5T120-200v-560q0-33 23.5-56.5T200-840h560q33 0 56.5 23.5T840-760v560q0 33-23.5 56.5T760-120H200Zm0-80h560v-560H200v560Zm0-560v560-560Z"></path>
  </symbol>
  <symbol xmlns="http://www.w3.org/2000/svg" fill="#e3e3e3" viewBox="0 -960 960 960" id="dark-mode">
    <path d="M480-120q-150 0-255-105T120-480q0-150 105-255t255-105q14 0 27.5 1t26.5 3q-41 29-65.5 75.5T444-660q0 90 63 153t153 63q55 0 101-24.5t75-65.5q2 13 3 26.5t1 27.5q0 150-105 255T480-120Zm0-80q88 0 158-48.5T740-375q-20 5-40 8t-40 3q-123 0-209.5-86.5T364-660q0-20 3-40t8-40q-78 32-126.5 102T200-480q0 116 82 198t198 82Zm-10-270Z"></path>
  </symbol>
  <symbol xmlns="http://www.w3.org/2000/svg" fill="#e3e3e3" viewBox="0 -960 960 960" id="light-mode">
    <path d="M480-360q50 0 85-35t35-85q0-50-35-85t-85-35q-50 0-85 35t-35 85q0 50 35 85t85 35Zm0 80q-83 0-141.5-58.5T280-480q0-83 58.5-141.5T480-680q83 0 141.5 58.5T680-480q0 83-58.5 141.5T480-280ZM200-440H40v-80h160v80Zm720 0H760v-80h160v80ZM440-760v-160h80v160h-80Zm0 720v-160h80v160h-80ZM256-650l-101-97 57-59 96 100-52 56Zm492 496-97-101 53-55 101 97-57 59Zm-98-550 97-101 59 57-100 96-56-52ZM154-212l101-97 55 53-97 101-59-57Zm326-268Z"></path>
  </symbol>
  <symbol xmlns="http://www.w3.org/2000/svg" fill="#e3e3e3" viewBox="0 -960 960 960" id="language">
    <path d="M480-80q-82 0-155-31.5t-127.5-86Q143-252 111.5-325T80-480q0-83 31.5-155.5t86-127Q252-817 325-848.5T480-880q83 0 155.5 31.5t127 86q54.5 54.5 86 127T880-480q0 82-31.5 155t-86 127.5q-54.5 54.5-127 86T480-80Zm0-82q26-36 45-75t31-83H404q12 44 31 83t45 75Zm-104-16q-18-33-31.5-68.5T322-320H204q29 50 72.5 87t99.5 55Zm208 0q56-18 99.5-55t72.5-87H638q-9 38-22.5 73.5T584-178ZM170-400h136q-3-20-4.5-39.5T300-480q0-21 1.5-40.5T306-560H170q-5 20-7.5 39.5T160-480q0 21 2.5 40.5T170-400Zm216 0h188q3-20 4.5-39.5T580-480q0-21-1.5-40.5T574-560H386q-3 20-4.5 39.5T380-480q0 21 1.5 40.5T386-400Zm268 0h136q5-20 7.5-39.5T800-480q0-21-2.5-40.5T790-560H654q3 20 4.5 39.5T660-480q0 21-1.5 40.5T654-400Zm-16-240h118q-29-50-72.5-87T584-782q18 33 31.5 68.5T638-640Zm-234 0h152q-12-44-31-83t-45-75q-26 36-45 75t-31 83Zm-200 0h118q9-38 22.5-73.5T376-782q-56 18-99.5 55T204-640Z"></path>
  </symbol>
  <symbol xmlns="http://www.w3.org/2000/svg" fill="#e3e3e3" viewBox="0 -960 960 960" id="theme">
    <path d="m247-904 57-56 343 343q23 23 23 57t-23 57L457-313q-23 23-57 23t-57-23L153-503q-23-23-23-57t23-57l190-191-96-96Zm153 153L209-560h382L400-751Zm360 471q-33 0-56.5-23.5T680-360q0-21 12.5-45t27.5-45q9-12 19-25t21-25q11 12 21 25t19 25q15 21 27.5 45t12.5 45q0 33-23.5 56.5T760-280ZM80 0v-160h800V0H80Z"></path>
  </symbol>
  <symbol xmlns="http://www.w3.org/2000/svg" fill="#e3e3e3" viewBox="0 -960 960 960" id="attachment">
    <path d="M326-243q-103 0-174.5-72.18-71.5-72.17-71.5-175Q80-593 151.5-665.5T326-738h380q72.5 0 123.25 51.5T880-563q0 72-50.75 123.5T706-388H346q-42 0-72-30t-30-72.5q0-42.5 29.67-72.5 29.68-30 72.33-30h370v60H346q-17 0-29.5 12.5T304-489.86q0 18.14 12.5 30T346-448h360q48 0 81-33.5t33-81.71q0-48.21-33.06-81.5T706-678H326q-78 0-132 54.97T140-490q0 77.92 54 132.46Q248-303 326-303h390v60H326Z"></path>
  </symbol>
</svg>