<?xml version="1.0" encoding="UTF-8"?>
<svg xmlns="http://www.w3.org/2000/svg" xmlns:xlink="http://www.w3.org/1999/xlink" width="0" height="0">
<symbol id="hard-work" viewBox="0 -960 960 960"><path d="M42-120v-112q0-33 17-62t47-44q51-26 115-44t141-18q77 0 141 18t115 44q30 15 47 44t17 62v112H42Zm80-80h480v-32q0-11-5.5-20T582-266q-36-18-92.5-36T362-320q-71 0-127.5 18T142-266q-9 5-14.5 14t-5.5 20v32Zm240-240q-66 0-113-47t-47-113h-10q-9 0-14.5-5.5T172-620q0-9 5.5-14.5T192-640h10q0-45 22-81t58-57v38q0 9 5.5 14.5T302-720q9 0 14.5-5.5T322-740v-54q9-3 19-4.5t21-1.5q11 0 21 1.5t19 4.5v54q0 9 5.5 14.5T422-720q9 0 14.5-5.5T442-740v-38q36 21 58 57t22 81h10q9 0 14.5 5.5T552-620q0 9-5.5 14.5T532-600h-10q0 66-47 113t-113 47Zm0-80q33 0 56.5-23.5T442-600H282q0 33 23.5 56.5T362-520Zm300 160-6-30q-6-2-11.5-4.5T634-402l-28 10-20-36 22-20v-24l-22-20 20-36 28 10q4-4 10-7t12-5l6-30h40l6 30q6 2 12 5t10 7l28-10 20 36-22 20v24l22 20-20 36-28-10q-5 5-10.5 7.5T708-390l-6 30h-40Zm20-70q12 0 21-9t9-21q0-12-9-21t-21-9q-12 0-21 9t-9 21q0 12 9 21t21 9Zm72-130-8-42q-9-3-16.5-7.5T716-620l-42 14-28-48 34-30q-2-5-2-8v-16q0-3 2-8l-34-30 28-48 42 14q6-6 13.5-10.5T746-798l8-42h56l8 42q9 3 16.5 7.5T848-780l42-14 28 48-34 30q2 5 2 8v16q0 3-2 8l34 30-28 48-42-14q-6 6-13.5 10.5T818-602l-8 42h-56Zm28-90q21 0 35.5-14.5T832-700q0-21-14.5-35.5T782-750q-21 0-35.5 14.5T732-700q0 21 14.5 35.5T782-650ZM362-200Z"/></symbol><symbol id="support"  viewBox="0 -960 960 960" ><path d="M440-120v-80h320v-284q0-117-81.5-198.5T480-764q-117 0-198.5 81.5T200-484v244h-40q-33 0-56.5-23.5T80-320v-80q0-21 10.5-39.5T120-469l3-53q8-68 39.5-126t79-101q47.5-43 109-67T480-840q68 0 129 24t109 66.5Q766-707 797-649t40 126l3 52q19 9 29.5 27t10.5 38v92q0 20-10.5 38T840-249v49q0 33-23.5 56.5T760-120H440Zm-80-280q-17 0-28.5-11.5T320-440q0-17 11.5-28.5T360-480q17 0 28.5 11.5T400-440q0 17-11.5 28.5T360-400Zm240 0q-17 0-28.5-11.5T560-440q0-17 11.5-28.5T600-480q17 0 28.5 11.5T640-440q0 17-11.5 28.5T600-400Zm-359-62q-7-106 64-182t177-76q89 0 156.5 56.5T720-519q-91-1-167.5-49T435-698q-16 80-67.5 142.5T241-462Z"/></symbol><symbol id="projects"  viewBox="0 -960 960 960" ><path d="M160-120q-33 0-56.5-23.5T80-200v-440q0-33 23.5-56.5T160-720h160v-80q0-33 23.5-56.5T400-880h160q33 0 56.5 23.5T640-800v80h160q33 0 56.5 23.5T880-640v440q0 33-23.5 56.5T800-120H160Zm0-80h640v-440H160v440Zm240-520h160v-80H400v80ZM160-200v-440 440Z"/></symbol><symbol id="happy-client"  viewBox="0 -960 960 960" ><path d="M280-120v-80h160v-124q-49-11-87.5-41.5T296-442q-75-9-125.5-65.5T120-640v-40q0-33 23.5-56.5T200-760h80v-80h400v80h80q33 0 56.5 23.5T840-680v40q0 76-50.5 132.5T664-442q-18 46-56.5 76.5T520-324v124h160v80H280Zm0-408v-152h-80v40q0 38 22 68.5t58 43.5Zm200 128q50 0 85-35t35-85v-240H360v240q0 50 35 85t85 35Zm200-128q36-13 58-43.5t22-68.5v-40h-80v152Zm-200-52Z"/></symbol></svg>
<?xml version="1.0" encoding="UTF-8"?>
<svg xmlns="http://www.w3.org/2000/svg" xmlns:xlink="http://www.w3.org/1999/xlink" width="0" height="0">
<symbol id="mail" viewBox="0 -960 960 960"><path d="M160-160q-33 0-56.5-23.5T80-240v-480q0-33 23.5-56.5T160-800h640q33 0 56.5 23.5T880-720v480q0 33-23.5 56.5T800-160H160Zm320-280L160-640v400h640v-400L480-440Zm0-80 320-200H160l320 200ZM160-640v-80 480-400Z"/></symbol><symbol id="location" viewBox="0 -960 960 960" ><path d="M480-370q51.4 0 92.7-24 41.3-24 66.3-64-34-26-74.22-39-40.21-13-85-13Q435-510 395-497t-74 39q25 40 66.3 64t92.7 24Zm.09-200q28.91 0 49.41-20.59 20.5-20.59 20.5-49.5t-20.59-49.41q-20.59-20.5-49.5-20.5t-49.41 20.59q-20.5 20.59-20.5 49.5t20.59 49.41q20.59 20.5 49.5 20.5ZM480-159q133-121 196.5-219.5T740-552q0-117.79-75.29-192.9Q589.42-820 480-820t-184.71 75.1Q220-669.79 220-552q0 75 65 173.5T480-159Zm0 79Q319-217 239.5-334.5T160-552q0-150 96.5-239T480-880q127 0 223.5 89T800-552q0 100-79.5 217.5T480-80Zm0-480Z"/></symbol><symbol id="phone"  viewBox="0 -960 960 960"><path d="M776-487q-5-121-89-205t-205-89v-60q72 2 135.5 30.5T729-734q48 48 76.5 111.5T836-487h-60Zm-169 0q-5-50-40-84.5T482-611v-60q75 5 127.5 57T667-487h-60Zm188 367q-116 0-236.5-56T335-335Q232-438 176-558.5T120-795q0-19.29 12.86-32.14Q145.71-840 165-840h140q14 0 24 10t14 25l26.93 125.64Q372-665 369.5-653.5t-10.73 19.73L259-533q26 44 55 82t64 72q37 38 78 69.5t86 55.5l95-98q10-11 23.15-15 13.15-4 25.85-2l119 26q15 4 25 16.04 10 12.05 10 26.96v135q0 19.29-12.86 32.14Q814.29-120 795-120ZM229-588l81-82-23-110H180q2 42 13.5 88.5T229-588Zm369 363q41 19 89 31t93 14v-107l-103-21-79 83ZM229-588Zm369 363Z"/></symbol></svg>
